<?xml version="1.0" encoding="utf-8"?>
<!-- Generator: Adobe Illustrator 15.0.0, SVG Export Plug-In . SVG Version: 6.00 Build 0)  -->
<!DOCTYPE svg PUBLIC "-//W3C//DTD SVG 1.1//EN" "http://www.w3.org/Graphics/SVG/1.1/DTD/svg11.dtd">
<svg version="1.1" id="Layer_1" xmlns="http://www.w3.org/2000/svg" xmlns:xlink="http://www.w3.org/1999/xlink" x="0px" y="0px"
	 width="300.558px" height="40.828px" viewBox="116.222 29.586 300.558 40.828"
	 enable-background="new 116.222 29.586 300.558 40.828" xml:space="preserve">
<rect x="317.734" y="33.48" fill="#FFFFFF" width="26.781" height="32.831"/>
<g>
	<path d="M300.938,56.811c0,1.328-0.056,2.168-0.166,2.521c-0.111,0.354-0.366,0.528-0.766,0.528c-0.389,0-0.638-0.151-0.744-0.459
		c-0.106-0.307-0.162-1.112-0.162-2.422V46.454c0-1.16,0.082-1.858,0.243-2.096c0.163-0.236,0.396-0.354,0.704-0.354
		c0.361,0,0.6,0.146,0.717,0.438c0.115,0.292,0.174,0.963,0.174,2.011V56.811L300.938,56.811z M306.798,50.002
		c0-2.32-0.055-3.943-0.166-4.872c-0.112-0.928-0.461-1.787-1.045-2.576c-0.586-0.789-1.358-1.38-2.317-1.775
		c-0.961-0.394-2.043-0.593-3.25-0.593c-1.272,0-2.386,0.209-3.342,0.628c-0.957,0.416-1.714,1.016-2.277,1.795
		c-0.562,0.779-0.896,1.64-1.002,2.582c-0.107,0.942-0.16,2.545-0.16,4.81v3.856c0,2.319,0.056,3.942,0.166,4.873
		c0.111,0.928,0.459,1.785,1.045,2.574c0.585,0.788,1.357,1.383,2.318,1.776c0.957,0.394,2.043,0.592,3.25,0.592
		c1.272,0,2.385-0.209,3.342-0.629c0.955-0.416,1.715-1.017,2.275-1.795c0.562-0.776,0.896-1.642,1.004-2.58
		c0.105-0.944,0.159-2.545,0.159-4.812V50.002L306.798,50.002z M291.305,48.335c0-2.105-0.178-3.653-0.529-4.65
		c-0.354-0.996-1.09-1.827-2.213-2.496c-1.123-0.666-2.549-1-4.274-1c-1.271,0-2.396,0.216-3.376,0.647
		c-0.979,0.432-1.744,1.024-2.296,1.775c-0.554,0.751-0.884,1.533-0.993,2.346c-0.114,0.811-0.169,2.03-0.169,3.653v6.583
		c0,2.209,0.182,3.863,0.544,4.964c0.361,1.1,1.1,1.961,2.213,2.582c1.113,0.62,2.53,0.934,4.245,0.934
		c1.651,0,3.044-0.368,4.169-1.103c1.128-0.733,1.857-1.59,2.188-2.565s0.494-2.629,0.494-4.963v-0.879h-5.861v2.833
		c0,1.238-0.066,2.023-0.2,2.357c-0.136,0.336-0.419,0.502-0.856,0.502c-0.455,0-0.746-0.166-0.875-0.5
		c-0.134-0.336-0.197-1.049-0.197-2.145V46.745c0-1.14,0.063-1.884,0.197-2.226c0.127-0.344,0.435-0.516,0.918-0.516
		c0.426,0,0.7,0.141,0.826,0.422c0.126,0.283,0.188,0.994,0.188,2.133v3.917h5.861v-2.14H291.305L291.305,48.335z M268.148,55.152
		c0.153-1.994,0.526-5.148,1.125-9.464c0.299,3.758,0.597,6.914,0.894,9.464H268.148z M264.801,40.661l-2.99,22.539h6.06
		l0.352-4.052h2.098l0.314,4.052h5.99l-3.352-22.539H264.801z M250.139,40.661v4.512h3.466V63.2h5.861V45.172h3.48V40.66
		L250.139,40.661L250.139,40.661z M236.646,55.152c0.153-1.994,0.527-5.148,1.125-9.464c0.299,3.758,0.596,6.914,0.894,9.464
		H236.646z M233.299,40.661L230.31,63.2h6.058l0.353-4.052h2.096l0.315,4.052h5.99l-3.352-22.539H233.299z M223.426,63.199h5.861
		V40.662h-5.861V63.199z M216.173,40.661v10.151l-3.286-10.149h-4.9v22.539h4.9V52.955l3.049,10.246h5.137v-22.54H216.173z
		 M199.892,44.852c0.255,0.223,0.383,0.692,0.383,1.407v1.238c0,0.994-0.132,1.581-0.397,1.761
		c-0.264,0.182-0.726,0.272-1.385,0.272v-5.011C199.171,44.519,199.637,44.631,199.892,44.852 M192.632,63.199h5.861v-10.16
		c0.808,0,1.307,0.143,1.496,0.432c0.19,0.287,0.286,1.033,0.286,2.24v7.49h5.444v-5.946c0-1.817-0.049-2.929-0.147-3.332
		c-0.097-0.403-0.345-0.847-0.745-1.329c-0.398-0.482-1.178-0.867-2.338-1.156c1.281-0.119,2.139-0.481,2.575-1.084
		s0.655-1.782,0.655-3.537c0-1.921-0.31-3.32-0.926-4.196c-0.617-0.878-1.415-1.422-2.394-1.637
		c-0.98-0.214-2.852-0.321-5.618-0.321h-4.149V63.199L192.632,63.199z M184.586,56.811c0,1.328-0.057,2.168-0.167,2.521
		c-0.111,0.354-0.366,0.528-0.765,0.528c-0.39,0-0.639-0.151-0.746-0.459c-0.107-0.307-0.159-1.112-0.159-2.422V46.454
		c0-1.16,0.081-1.858,0.243-2.096c0.162-0.236,0.396-0.354,0.702-0.354c0.362,0,0.601,0.146,0.717,0.438
		c0.115,0.292,0.174,0.963,0.174,2.011L184.586,56.811L184.586,56.811z M190.447,50.002c0-2.32-0.055-3.943-0.167-4.872
		c-0.111-0.928-0.459-1.787-1.044-2.576c-0.584-0.789-1.357-1.38-2.317-1.775c-0.961-0.394-2.045-0.593-3.251-0.593
		c-1.271,0-2.385,0.209-3.341,0.628c-0.956,0.416-1.715,1.016-2.276,1.795c-0.562,0.779-0.896,1.64-1.002,2.582
		s-0.16,2.545-0.16,4.81v3.856c0,2.319,0.055,3.942,0.167,4.873c0.112,0.928,0.459,1.785,1.044,2.574
		c0.584,0.788,1.357,1.383,2.318,1.776c0.959,0.394,2.044,0.592,3.25,0.592c1.271,0,2.385-0.209,3.34-0.629
		c0.957-0.416,1.715-1.017,2.277-1.795c0.562-0.776,0.896-1.642,1.002-2.58c0.106-0.944,0.16-2.545,0.16-4.812V50.002
		L190.447,50.002z M165.709,63.199h5.86v-9.465h3.619v-4.29h-3.619v-4.273h4.065V40.66h-9.926L165.709,63.199L165.709,63.199z
		 M157.496,63.199h5.861V40.662h-5.861V63.199z M146.651,40.661V63.2h9.425v-4.511h-3.564V40.661H146.651z M137.181,55.152
		c0.152-1.994,0.528-5.148,1.125-9.464c0.299,3.758,0.597,6.914,0.893,9.464H137.181z M133.834,40.661L130.843,63.2h6.06
		l0.352-4.052h2.096l0.315,4.052h5.99l-3.351-22.539H133.834z M130.072,48.335c0-2.105-0.177-3.653-0.529-4.65
		c-0.353-0.996-1.091-1.827-2.214-2.496c-1.123-0.666-2.547-1-4.273-1c-1.272,0-2.397,0.216-3.376,0.647
		c-0.979,0.432-1.744,1.024-2.296,1.775c-0.552,0.751-0.884,1.533-0.995,2.346c-0.112,0.812-0.167,2.03-0.167,3.654v6.584
		c0,2.21,0.181,3.863,0.543,4.964c0.362,1.098,1.1,1.959,2.213,2.58c1.114,0.622,2.529,0.934,4.246,0.934
		c1.652,0,3.042-0.366,4.169-1.103c1.127-0.731,1.856-1.59,2.186-2.563c0.329-0.978,0.495-2.631,0.495-4.963v-0.879h-5.861v2.831
		c0,1.238-0.067,2.021-0.201,2.357c-0.135,0.336-0.421,0.504-0.857,0.504c-0.455,0-0.747-0.168-0.876-0.502
		c-0.13-0.334-0.195-1.049-0.195-2.145V46.745c0-1.14,0.065-1.884,0.195-2.226c0.13-0.344,0.436-0.516,0.918-0.516
		c0.427,0,0.703,0.141,0.829,0.422c0.125,0.283,0.187,0.994,0.187,2.133v3.917h5.861L130.072,48.335L130.072,48.335z"/>
	<path d="M406.619,63.199h10.161v-4.51h-4.303v-4.957h3.661v-4.289h-3.661v-4.273h3.913v-4.51h-9.771V63.199z M398.523,44.852
		c0.255,0.223,0.383,0.691,0.383,1.407v1.239c0,0.992-0.133,1.578-0.397,1.761c-0.263,0.181-0.727,0.271-1.384,0.271v-5.012
		C397.803,44.518,398.269,44.63,398.523,44.852 M391.264,63.199h5.861v-10.16c0.807,0,1.306,0.143,1.494,0.43
		c0.19,0.287,0.286,1.035,0.286,2.242v7.488h5.441v-5.943c0-1.818-0.048-2.93-0.146-3.334c-0.096-0.402-0.343-0.844-0.743-1.33
		c-0.399-0.48-1.179-0.867-2.339-1.154c1.281-0.121,2.139-0.482,2.575-1.084c0.436-0.603,0.652-1.783,0.652-3.537
		c0-1.922-0.308-3.321-0.923-4.197c-0.618-0.877-1.417-1.422-2.396-1.636c-0.979-0.213-2.852-0.32-5.616-0.32h-4.15v22.536H391.264z
		 M383.216,56.811c0,1.328-0.055,2.168-0.166,2.521c-0.11,0.354-0.364,0.528-0.765,0.528c-0.389,0-0.639-0.151-0.746-0.461
		c-0.105-0.305-0.159-1.112-0.159-2.42V46.454c0-1.162,0.08-1.858,0.244-2.096c0.161-0.236,0.396-0.354,0.702-0.354
		c0.359,0,0.6,0.146,0.717,0.438c0.115,0.292,0.173,0.961,0.173,2.011V56.811L383.216,56.811z M389.077,50.002
		c0-2.319-0.054-3.942-0.165-4.872c-0.112-0.928-0.462-1.785-1.046-2.576c-0.584-0.789-1.357-1.379-2.318-1.774
		c-0.959-0.396-2.043-0.592-3.251-0.592c-1.271,0-2.384,0.208-3.34,0.627c-0.956,0.418-1.715,1.017-2.275,1.795
		c-0.562,0.779-0.897,1.64-1.004,2.583c-0.107,0.941-0.16,2.543-0.16,4.808v3.854c0,2.32,0.056,3.944,0.166,4.873
		c0.112,0.929,0.459,1.785,1.047,2.574c0.582,0.789,1.354,1.383,2.315,1.777c0.96,0.393,2.043,0.592,3.251,0.592
		c1.271,0,2.385-0.209,3.342-0.629c0.955-0.416,1.715-1.016,2.275-1.795s0.896-1.641,1.003-2.58c0.106-0.943,0.16-2.545,0.16-4.811
		V50.002L389.077,50.002z M365.708,40.662l-1.349,10.525l-0.832-5.734c-0.238-1.839-0.471-3.437-0.694-4.792h-7.583v22.537h5.123
		l0.006-14.867l2.15,14.867h3.635l2.037-15.215l0.008,15.215h5.123V40.662H365.708z"/>
	<path d="M343.742,60.012l-4.084,4.082l-3.549-3.596c-0.906,1.037-1.991,1.865-3.256,2.479c-1.264,0.615-2.641,0.924-4.131,0.924
		c-1.328,0-2.584-0.252-3.768-0.754c-1.182-0.502-2.21-1.19-3.085-2.063c-0.877-0.877-1.572-1.901-2.089-3.088
		c-0.521-1.181-0.779-2.453-0.779-3.813c0-1.686,0.396-3.232,1.191-4.643c0.795-1.408,1.841-2.551,3.136-3.426
		c-0.453-0.55-0.804-1.183-1.045-1.896c-0.243-0.711-0.366-1.458-0.366-2.236c0-0.939,0.178-1.821,0.535-2.648
		c0.355-0.826,0.845-1.547,1.459-2.164c0.613-0.615,1.338-1.101,2.161-1.458c0.825-0.356,1.711-0.535,2.649-0.535
		s1.822,0.179,2.647,0.535c0.828,0.357,1.548,0.844,2.164,1.458c0.614,0.617,1.1,1.337,1.459,2.164
		c0.356,0.827,0.534,1.709,0.534,2.648c0,1.361-0.34,2.576-1.021,3.646c-0.68,1.07-1.588,1.88-2.723,2.43l4.424,4.472L340,48.69
		l3.938,3.937l-3.84,3.792L343.742,60.012z M316.523,70.414h29.113V29.586h-29.113V70.414z"/>
</g>
</svg>
