<?xml version="1.0" encoding="utf-8"?>
<!-- Generator: Adobe Illustrator 15.0.0, SVG Export Plug-In . SVG Version: 6.00 Build 0)  -->
<!DOCTYPE svg PUBLIC "-//W3C//DTD SVG 1.1//EN" "http://www.w3.org/Graphics/SVG/1.1/DTD/svg11.dtd">
<svg version="1.1" id="Layer_1" xmlns="http://www.w3.org/2000/svg" xmlns:xlink="http://www.w3.org/1999/xlink" x="0px" y="0px"
	 width="268px" height="161px" viewBox="46 19 268 161" enable-background="new 46 19 268 161" xml:space="preserve">
<rect x="71.788" y="32.466" fill="#FFFFFF" width="54.432" height="28.509"/>
<g>
	<g>
		<path d="M71.293,29.121h18.739v31.893h-18.74L71.293,29.121L71.293,29.121z M88.627,38.434v-5.323H72.586v5.323h5.358V56.68h5.321
			V38.434H88.627z"/>
		<path d="M89.614,29.083h20.071v31.892H89.614V29.083z M107.86,56.641V33.075h-5.322v9.121h-6.309v-9.121h-5.323v23.566h5.323
			V47.52h6.309v9.121H107.86z"/>
		<path d="M109.151,29.083h17.41v31.892h-17.41V29.083z M125.003,38.396v-5.321h-14.445v23.566h14.444v-5.322h-9.123v-3.8h6.728
			v-5.323h-6.728v-3.802L125.003,38.396L125.003,38.396z"/>
	</g>
</g>
<rect x="57.101" y="65.557" fill="#FFFFFF" width="243.33" height="40.91"/>
<g>
	<g>
		<path d="M56.664,60.704H80.01v45.763H56.664V60.704z M77.829,100.251v-7.637H67.027V66.43h-7.636v33.819L77.829,100.251
			L77.829,100.251z"/>
		<path d="M78.918,60.704h24.983v45.763H78.918V60.704z M101.665,74.066V66.43H80.938v33.819h20.727v-7.635h-13.09v-5.455h9.654
			v-7.635h-9.654v-5.456h13.09V74.066z"/>
		<path d="M132.047,60.704v45.763h-28.91V60.704H132.047L132.047,60.704z M130.355,83.395h-13.144v7.037h4.254
			c-0.508,0.691-1.126,1.228-1.854,1.608c-0.729,0.383-1.528,0.573-2.399,0.573c-0.763,0-1.472-0.154-2.127-0.464
			c-0.654-0.307-1.228-0.736-1.719-1.281c-0.491-0.544-0.883-1.173-1.172-1.881c-0.292-0.709-0.435-1.482-0.435-2.319v-6.656
			c0-0.799,0.144-1.563,0.435-2.291c0.29-0.727,0.682-1.363,1.172-1.91c0.491-0.545,1.063-0.972,1.719-1.281
			c0.655-0.31,1.364-0.466,2.127-0.466c0.765,0,1.482,0.156,2.156,0.466c0.671,0.308,1.254,0.736,1.745,1.281
			c0.491,0.544,0.881,1.183,1.172,1.91c0.289,0.728,0.437,1.492,0.437,2.291h7.635c0-1.818-0.328-3.546-0.982-5.182
			c-0.654-1.637-1.581-3.091-2.782-4.364c-1.274-1.309-2.708-2.308-4.308-3c-1.601-0.692-3.273-1.037-5.018-1.037h-0.055
			c-3.636,0-6.745,1.345-9.327,4.036c-1.2,1.274-2.118,2.719-2.755,4.335c-0.636,1.619-0.973,3.318-1.009,5.1v6.983
			c0.035,1.781,0.382,3.463,1.037,5.045c0.654,1.583,1.562,3.009,2.727,4.283c2.581,2.691,5.69,4.038,9.327,4.038h0.055
			c1.055,0,2.081-0.156,3.082-0.465c0.999-0.308,1.972-0.735,2.918-1.281v1.746h7.037V87.537c0-0.183,0.008-0.336,0.028-0.466
			c0.017-0.125,0.026-0.261,0.026-0.408L130.355,83.395L130.355,83.395L130.355,83.395z"/>
		<path d="M131.446,60.704h24.983v45.763h-24.983V60.704L131.446,60.704z M154.193,74.066V66.43h-20.729v33.819h20.729v-7.635
			h-13.092v-5.455h9.655v-7.635h-9.655v-5.456h13.092V74.066z"/>
		<path d="M155.447,60.704h29.4v45.763h-29.4V60.704z M182.611,100.251V66.43h-7.637v18.875l-9.491-18.875h-7.799v33.819h7.636
			V81.377l9.546,18.872L182.611,100.251L182.611,100.251L182.611,100.251z"/>
		<path d="M213.648,60.758v45.764h-29.51V60.758H213.648z M206.285,95.394c1.637-1.635,2.871-3.471,3.707-5.509
			c0.838-2.034,1.255-4.2,1.255-6.489c0-2.292-0.418-4.454-1.255-6.492c-0.836-2.034-2.073-3.853-3.707-5.454
			c-1.637-1.637-3.492-2.873-5.564-3.708c-2.074-0.838-4.254-1.256-6.547-1.256h-6.818v33.82h6.818h1.037
			c2.073-0.11,4.054-0.582,5.945-1.419C203.047,98.048,204.757,96.886,206.285,95.394z"/>
		<path d="M212.776,60.704h34.581v45.763h-34.581V60.704z M237.432,100.251h8.235L233.938,66.43h-8.345l-11.729,33.821h8.182
			l4.583-13.092h6.273L237.432,100.251z"/>
		<path d="M271.846,60.704v45.763h-25.579V60.704H271.846L271.846,60.704z M270.103,100.251l-6.436-13.966
			c1.746-0.834,3.145-2.081,4.2-3.735c1.055-1.656,1.58-3.52,1.58-5.592c0-1.453-0.28-2.816-0.846-4.091
			c-0.562-1.271-1.316-2.391-2.262-3.353c-0.944-0.964-2.054-1.72-3.327-2.264c-1.272-0.545-2.638-0.818-4.091-0.818h-0.055h-10.254
			v33.821h7.636V87.432h0.055l5.894,12.818L270.103,100.251L270.103,100.251z"/>
		<path d="M271.03,60.704h29.891v45.763H271.03V60.704L271.03,60.704z M289.738,83.395l9.11-16.965h-7.637l-5.291,9.818
			l-5.293-9.818h-7.636l9.109,16.908v16.911h7.635V83.395H289.738z"/>
	</g>
</g>
<rect x="92.671" y="109.618" fill="#FFFFFF" width="168.062" height="58.22"/>
<g>
	<g>
		<path d="M91.663,102.785h38.271v65.131H91.663V102.785L91.663,102.785z M127.061,121.805v-10.867h-32.76v10.867h10.945v37.262
			h10.869v-37.262H127.061L127.061,121.805z"/>
		<path d="M128.924,102.709h49.216v65.129h-49.216V102.709L128.924,102.709z M164.012,158.99h11.722l-16.689-48.13h-11.878
			l-16.69,48.13h11.645l6.521-18.633h8.927L164.012,158.99z"/>
		<path d="M219.284,102.709v65.129h-42.386v-65.129H219.284z M198.321,148.121c-1.086,0-2.095-0.219-3.027-0.66
			c-0.932-0.439-1.747-1.047-2.444-1.824c-0.699-0.777-1.257-1.668-1.668-2.678c-0.415-1.008-0.623-2.105-0.623-3.299v-9.473
			c0-1.137,0.206-2.223,0.623-3.262c0.411-1.035,0.969-1.939,1.668-2.717c0.697-0.774,1.513-1.383,2.444-1.822
			c0.931-0.441,1.941-0.662,3.027-0.662c1.089,0,2.11,0.221,3.067,0.662c0.956,0.439,1.784,1.048,2.485,1.822
			c0.697,0.777,1.253,1.684,1.669,2.717c0.412,1.037,0.621,2.123,0.621,3.262h10.869c0-2.588-0.467-5.044-1.398-7.374
			c-0.932-2.327-2.25-4.397-3.959-6.209c-3.674-3.83-8.101-5.745-13.273-5.745h-0.078c-5.175,0-9.6,1.915-13.275,5.745
			c-1.707,1.812-3.016,3.869-3.918,6.17c-0.906,2.304-1.387,4.724-1.438,7.261v9.936c0.053,2.537,0.544,4.93,1.475,7.182
			c0.934,2.25,2.225,4.283,3.882,6.092c3.675,3.83,8.1,5.746,13.275,5.746h0.076c2.535,0,4.93-0.492,7.181-1.477
			c2.252-0.98,4.284-2.406,6.096-4.27c1.707-1.811,3.027-3.879,3.957-6.209c0.932-2.33,1.4-4.787,1.4-7.373h-10.871
			c0,1.188-0.206,2.287-0.622,3.297c-0.415,1.01-0.971,1.9-1.669,2.678c-0.697,0.777-1.527,1.385-2.484,1.824
			S199.41,148.121,198.321,148.121z"/>
		<path d="M261.355,102.709v65.129h-43.24v-65.129H261.355z M258.562,139.893v-3.881v-5.979v-1.475
			c-0.208-2.277-0.777-4.424-1.708-6.442c-0.933-2.019-2.174-3.829-3.728-5.435c-1.759-1.864-3.778-3.299-6.054-4.309
			c-2.279-1.01-4.657-1.513-7.141-1.513h-0.08c-2.534,0-4.944,0.503-7.221,1.513s-4.295,2.447-6.054,4.309
			c-1.551,1.656-2.782,3.493-3.687,5.51c-0.905,2.018-1.462,4.168-1.669,6.443v11.258c0.051,2.537,0.529,4.955,1.438,7.258
			c0.903,2.305,2.213,4.359,3.917,6.17c1.812,1.812,3.843,3.223,6.094,4.234c2.253,1.006,4.646,1.51,7.181,1.51h0.08
			c2.483,0,4.861-0.504,7.141-1.51c2.276-1.012,4.295-2.422,6.054-4.234c1.709-1.811,3.029-3.867,3.959-6.17
			s1.398-4.723,1.398-7.258H258.562L258.562,139.893L258.562,139.893z"/>
	</g>
</g>
</svg>
