<?xml version="1.0" encoding="utf-8"?>
<!-- Generator: Adobe Illustrator 15.0.0, SVG Export Plug-In . SVG Version: 6.00 Build 0)  -->
<!DOCTYPE svg PUBLIC "-//W3C//DTD SVG 1.1//EN" "http://www.w3.org/Graphics/SVG/1.1/DTD/svg11.dtd">
<svg version="1.1" id="Layer_1" xmlns="http://www.w3.org/2000/svg" xmlns:xlink="http://www.w3.org/1999/xlink" x="0px" y="0px"
	 width="1000px" height="600px" viewBox="-243.275 -253.493 1000 600" enable-background="new -243.275 -253.493 1000 600"
	 xml:space="preserve">
<rect x="-124.12" y="-198.804" fill="#FFFFFF" width="197.251" height="103.311"/>
<g>
	<g>
		<path d="M-125.91-210.927h67.909v115.571h-67.909V-210.927z M-63.098-177.177v-19.288h-58.128v19.286h19.421v66.12h19.285v-66.118
			H-63.098z"/>
		<path d="M-59.517-211.063h72.73v115.57h-72.73V-211.063z M6.603-111.198v-85.402h-19.286v33.057h-22.866v-33.057h-19.285v85.402
			h19.285v-33.058h22.864v33.058H6.603z"/>
		<path d="M11.283-211.063h63.089v115.57H11.283V-211.063z M68.725-177.316v-19.284H16.38v85.402h52.345v-19.284h-33.06v-13.774
			h24.381v-19.286H35.665v-13.774H68.725z"/>
	</g>
</g>
<rect x="-177.341" y="-78.886" fill="#FFFFFF" width="881.784" height="148.251"/>
<g>
	<g>
		<path d="M-178.921-96.479h84.601V69.365h-84.601V-96.479z M-102.228,46.832V19.16h-39.137v-94.883h-27.673V46.83h66.81V46.832z"/>
		<path d="M-98.275-96.479h90.532V69.365h-90.532V-96.479z M-15.847-48.051v-27.672h-75.114V46.83h75.114V19.157h-47.441V-0.609
			h34.987v-27.672h-34.987v-19.77H-15.847z"/>
		<path d="M94.251-96.479V69.365H-10.513V-96.479H94.251z M88.123-14.247H40.486v25.499h15.418
			c-1.846,2.504-4.086,4.448-6.721,5.832c-2.639,1.382-5.536,2.073-8.697,2.073c-2.768,0-5.337-0.56-7.709-1.68
			c-2.372-1.118-4.447-2.668-6.227-4.645c-1.779-1.977-3.198-4.25-4.25-6.819c-1.056-2.572-1.581-5.369-1.581-8.402v-24.116
			c0-2.896,0.524-5.664,1.581-8.302c1.052-2.635,2.471-4.943,4.25-6.92c1.779-1.977,3.854-3.524,6.227-4.645
			c2.372-1.117,4.941-1.682,7.709-1.682c2.768,0,5.368,0.563,7.808,1.682c2.436,1.121,4.546,2.668,6.324,4.645
			c1.778,1.977,3.193,4.285,4.25,6.92c1.052,2.638,1.581,5.406,1.581,8.302h27.672c0-6.588-1.185-12.847-3.558-18.779
			c-2.372-5.93-5.731-11.198-10.081-15.814c-4.615-4.743-9.818-8.367-15.616-10.872c-5.8-2.503-11.859-3.755-18.186-3.755h-0.197
			c-13.178,0-24.445,4.878-33.801,14.626c-4.348,4.615-7.678,9.854-9.983,15.716c-2.308,5.864-3.527,12.025-3.657,18.48V-1.6
			c0.13,6.458,1.385,12.552,3.756,18.284c2.373,5.732,5.665,10.907,9.884,15.52c9.354,9.752,20.622,14.627,33.801,14.627h0.197
			c3.821,0,7.542-0.56,11.169-1.68c3.623-1.118,7.147-2.668,10.576-4.645v6.323h25.5V0.771c0-0.658,0.031-1.216,0.099-1.68
			c0.064-0.461,0.098-0.955,0.098-1.482v-11.855H88.123z"/>
		<path d="M92.075-96.479h90.532V69.365H92.075V-96.479z M174.503-48.051v-27.672H99.388V46.83h75.115V19.157h-47.441V-0.609h34.987
			v-27.672h-34.987v-19.77H174.503z"/>
		<path d="M179.048-96.479h106.543V69.365H179.048V-96.479z M277.487,46.832V-75.722h-27.673v68.394L215.42-75.722h-28.267V46.83
			h27.672v-68.393l34.592,68.393h28.069V46.832z"/>
		<path d="M389.959-96.28V69.564H283.02V-96.28H389.959z M363.274,29.239c5.932-5.93,10.408-12.582,13.44-19.964
			c3.029-7.375,4.545-15.22,4.545-23.521s-1.516-16.141-4.545-23.523c-3.032-7.377-7.513-13.965-13.44-19.766
			c-5.929-5.932-12.65-10.408-20.161-13.441c-7.515-3.031-15.418-4.547-23.722-4.547h-24.707V47.031h24.707h3.757
			c7.511-0.396,14.692-2.107,21.545-5.14C351.542,38.86,357.738,34.643,363.274,29.239z"/>
		<path d="M386.795-96.479h125.318V69.365H386.795V-96.479z M476.142,46.832h29.847l-42.5-122.553h-30.243L390.749,46.832h29.65
			l16.604-47.44h22.732L476.142,46.832z"/>
		<path d="M600.864-96.479V69.365H508.16V-96.479H600.864z M594.54,46.832L571.214-3.772c6.325-3.029,11.401-7.541,15.225-13.54
			c3.82-5.995,5.729-12.75,5.729-20.261c0-5.269-1.018-10.21-3.062-14.825c-2.045-4.609-4.774-8.661-8.202-12.157
			c-3.427-3.488-7.447-6.227-12.057-8.202c-4.613-1.977-9.557-2.964-14.825-2.964h-0.196h-37.161V46.832h27.672V0.382h0.2
			l21.346,46.451H594.54z"/>
		<path d="M597.9-96.479h108.322V69.365H597.9V-96.479z M665.7-14.247l33.012-61.476h-27.676l-19.171,35.581l-19.176-35.581h-27.675
			l33.011,61.276V46.83H665.7V-14.247z"/>
	</g>
</g>
<rect x="-48.437" y="80.778" fill="#FFFFFF" width="609.028" height="210.984"/>
<g>
	<g>
		<path d="M-52.095,56.021H86.591v236.021H-52.095V56.021z M76.182,124.943V85.559H-42.531v39.383h39.664v135.03h39.383v-135.03
			H76.182L76.182,124.943z"/>
		<path d="M82.933,55.739h178.352V291.76H82.933V55.739z M210.086,259.693h42.479L192.082,85.279h-43.041L88.558,259.693h42.196
			l23.63-67.518h32.352L210.086,259.693z"/>
		<path d="M410.376,55.739V291.76H256.78V55.739H410.376z M334.423,220.308c-3.939,0-7.595-0.793-10.972-2.391
			c-3.377-1.591-6.33-3.796-8.861-6.611c-2.533-2.813-4.55-6.048-6.05-9.705c-1.503-3.657-2.25-7.639-2.25-11.954v-34.32
			c0-4.123,0.747-8.06,2.25-11.815c1.498-3.749,3.517-7.032,6.05-9.844c2.531-2.813,5.484-5.015,8.861-6.613
			c3.377-1.591,7.032-2.391,10.972-2.391c3.936,0,7.639,0.8,11.11,2.391c3.469,1.598,6.472,3.797,9.005,6.613
			c2.529,2.813,4.543,6.097,6.048,9.844c1.498,3.755,2.248,7.693,2.248,11.815h39.386c0-9.376-1.688-18.285-5.064-26.725
			c-3.374-8.439-8.156-15.938-14.346-22.504c-13.316-13.876-29.354-20.817-48.103-20.817h-0.281
			c-18.757,0-34.791,6.94-48.105,20.817c-6.188,6.567-10.928,14.023-14.206,22.364c-3.282,8.348-5.021,17.116-5.203,26.304v36.009
			c0.185,9.188,1.969,17.862,5.345,26.021c3.379,8.158,8.062,15.521,14.066,22.082c13.314,13.883,29.347,20.82,48.105,20.82h0.279
			c9.188,0,17.863-1.78,26.022-5.349c8.156-3.557,15.517-8.718,22.083-15.472c6.188-6.561,10.97-14.066,14.345-22.503
			c3.377-8.438,5.065-17.344,5.065-26.725h-39.385c0,4.315-0.751,8.297-2.252,11.954c-1.502,3.657-3.516,6.892-6.048,9.705
			c-2.529,2.813-5.532,5.02-9.002,6.61C342.062,219.513,338.363,220.308,334.423,220.308z"/>
		<path d="M562.844,55.739V291.76H406.156V55.739H562.844z M552.719,190.49v-14.066v-21.662v-5.346
			c-0.754-8.249-2.813-16.034-6.191-23.348c-3.375-7.314-7.876-13.876-13.503-19.693c-6.377-6.751-13.691-11.955-21.939-15.612
			c-8.258-3.657-16.881-5.485-25.882-5.485h-0.281c-9.19,0-17.912,1.828-26.163,5.485c-8.254,3.657-15.568,8.863-21.941,15.612
			c-5.628,6.004-10.083,12.659-13.363,19.973c-3.28,7.313-5.301,15.099-6.048,23.35v40.79c0.188,9.19,1.922,17.959,5.206,26.303
			c3.278,8.346,8.016,15.801,14.205,22.364c6.562,6.567,13.926,11.675,22.082,15.332c8.159,3.657,16.832,5.485,26.022,5.485h0.281
			c9.001,0,17.624-1.828,25.882-5.485c8.248-3.657,15.562-8.765,21.939-15.332c6.192-6.563,10.974-14.019,14.349-22.364
			c3.374-8.344,5.062-17.11,5.062-26.303h0.284V190.49z"/>
	</g>
</g>
</svg>
