<?xml version="1.0" encoding="utf-8"?>
<!-- Generated by IcoMoon.io -->
<!DOCTYPE svg PUBLIC "-//W3C//DTD SVG 1.1//EN" "http://www.w3.org/Graphics/SVG/1.1/DTD/svg11.dtd">

<svg version="1.1" xmlns="http://www.w3.org/2000/svg" xmlns:xlink="http://www.w3.org/1999/xlink" width="144" height="64" viewBox="0 0 144 64">
<defs>
<g id="icon-facebook">
	<path class="path1" d="M32 0c17.673 0 32 14.327 32 32 0 16.318-12.215 29.783-28 31.752v-23.752h11l1-8h-12v-4c0-2.209 1.791-4 4-4h8v-8h-8c-6.627 0-12 5.372-12 12v4h-6v8h6v23.752c-15.785-1.968-28-15.433-28-31.752 0-17.673 14.327-32 32-32z" />
</g>
<g id="icon-twitter">
	<path class="path1" d="M32 0c-17.673 0-32 14.327-32 32s14.327 32 32 32 32-14.327 32-32-14.327-32-32-32zM50.39 22.568c0.018 0.407 0.028 0.816 0.028 1.227 0 12.539-9.544 26.998-26.997 26.998-5.358 0-10.346-1.571-14.545-4.263 0.742 0.088 1.498 0.133 2.264 0.133 4.446 0 8.537-1.517 11.784-4.062-4.152-0.076-7.656-2.82-8.864-6.59 0.58 0.111 1.174 0.17 1.785 0.17 0.865 0 1.704-0.116 2.5-0.333-4.341-0.872-7.612-4.707-7.612-9.304 0-0.040 0-0.080 0.001-0.119 1.279 0.711 2.742 1.137 4.298 1.187-2.546-1.701-4.221-4.606-4.221-7.898 0-1.739 0.468-3.369 1.285-4.77 4.68 5.741 11.672 9.518 19.558 9.914-0.162-0.695-0.246-1.419-0.246-2.163 0-5.24 4.249-9.488 9.489-9.488 2.729 0 5.195 1.152 6.926 2.996 2.161-0.425 4.192-1.215 6.026-2.303-0.709 2.216-2.213 4.075-4.172 5.25 1.919-0.229 3.748-0.739 5.45-1.494-1.272 1.903-2.881 3.574-4.735 4.912z" />
</g>
</defs>

<g fill="#000000">
	<use xlink:href="#icon-facebook" transform="translate(0 0)"></use>
	<use xlink:href="#icon-twitter" transform="translate(80 0)"></use>
</g>

</svg>
