<?xml version="1.0" encoding="utf-8"?>
<!-- Generator: Adobe Illustrator 15.0.0, SVG Export Plug-In . SVG Version: 6.00 Build 0)  -->
<!DOCTYPE svg PUBLIC "-//W3C//DTD SVG 1.1//EN" "http://www.w3.org/Graphics/SVG/1.1/DTD/svg11.dtd">
<svg version="1.1" id="Layer_1" xmlns="http://www.w3.org/2000/svg" xmlns:xlink="http://www.w3.org/1999/xlink" x="0px" y="0px"
	 width="108px" height="84px" viewBox="-10.637 -32.569 108 84" enable-background="new -10.637 -32.569 108 84"
	 xml:space="preserve">
<g>
	<g>
		<path fill="#231F20" d="M20.775,26.592c-3.849-9.37-5.5-18.578-6.586-27.525C9.397-2.578,2.79-1.81,0.442-0.051
			c0.716,10.722-0.084,22.298,2.706,34.423C9.371,30.895,15.266,29.369,20.775,26.592 M73.654-5.709
			c0.76,6.144,4.768,12.976,7.118,20.466c1.774,5.671,3.371,12.16,5.233,18.186c0.468,1.521,1.718,2.978,0.711,4.517
			c-1.215,0.221-1.424,0.229-2.721,0.594c-0.352-0.551-0.758-0.884-1.214-0.997C70.779,33.291,55.77,26.632,44.116,26.702
			c0.059,0.001,0.146,0.128,0.295,0.119c-1.649,0.128-2.954,0.366-4.453-0.951c-0.385-2.354,1.775-2.739,3.297-4.422
			c1.188-1.304,2.147-3.124,3.259-4.945c0.58-0.957,0.6-1.125,0.842-1.52c-9.36-4.75-19.05-8.094-28.308-13.282
			c0.442,6.863,2.347,15.066,5.363,23.818c1.132-0.191,1.855,2.419,1.59,3.517c-4.825,1.755-10.179,3.107-15.498,5.592
			C7.8,35.893,4.27,37.802,2.686,39.765C1.725,39.97,0.96,39.339-0.07,39.838c0.195-0.69-1.251-1.026-0.998-1.924
			c-0.283-0.771,0.588-1.427,0.618-1.95c0.063-0.949-0.528-1.693-0.668-2.638c-0.183-1.229-0.042-2.365-0.268-3.664
			c-1.4-8.071-1.775-17.161-1.097-24.126c-1.088-1.686-0.153-4.41-1.082-5.682C-3.259-1.594-2.675-2.1-2.95-3.449
			c7.661-7.705,16.173-12.897,25.727-15.51C35.798-15.383,47.525-6.309,59.741,0.689C65.596-1.429,68.803-9.808,73.654-5.709
			 M6.052-5.717c0.381-0.198,0.925,0.921,0.845,0.15c-0.099,0.05-0.294-0.065-0.11-0.214c4.371-0.085,7.708,1.396,11.99,2.468
			c1.207,1.579,2.494,1.591,3.794,2.375c0.821,0.501,1.503,1.348,2.32,1.784c0.95,0.502,2.019,0.446,3.018,0.879
			c0.909,0.389,1.616,1.208,2.503,1.688c5.611,3.015,12.364,4.795,17.594,7.436c1.627,0.817,4.082,2.427,4.823,3.468
			c-0.698,3.349-5.316,5.934-6.075,9.391c11.182,1.804,22.141,4.546,32.601,9.427c1.082-0.268,1.823,0.92,2.977,0.357
			c-3.683-11.334-6.908-22.703-12.083-34.989c-2.676,1.783-6.337,3.986-8.73,6.969c-1.194,0.334-4.285,0.83-5.228-2.448
			c-11.571-6.225-21.452-15.5-33.871-17.725C16.116-12.337,10.773-10.347,6.052-5.717 M6.037-5.71
			C6.005-5.693,5.965-5.66,5.94-5.614C5.974-5.644,6.003-5.681,6.037-5.71"/>
	</g>
	<g>
		<path fill="#FFFFFF" d="M70.248-1.498c5.175,12.288,8.398,23.655,12.083,34.989c-1.153,0.563-1.895-0.625-2.978-0.357
			c-10.459-4.881-21.42-7.624-32.6-9.427c0.76-3.458,5.377-6.042,6.075-9.391c-0.741-1.041-3.197-2.65-4.823-3.469
			c-5.23-2.639-11.983-4.419-17.594-7.435c-0.887-0.479-1.595-1.299-2.503-1.688c-0.999-0.433-2.068-0.375-3.016-0.88
			c-0.818-0.434-1.5-1.278-2.321-1.782c-1.3-0.783-2.586-0.797-3.794-2.375c-4.281-1.073-7.619-2.553-11.99-2.468
			c-0.184,0.149,0.011,0.264,0.11,0.214c0.081,0.771-0.462-0.35-0.845-0.15c4.721-4.63,10.064-6.621,16.368-8.984
			C34.84-12.476,44.72-3.202,56.292,3.023c0.941,3.275,4.032,2.781,5.229,2.446C63.912,2.489,67.572,0.285,70.248-1.498"/>
	</g>
	<g>
		<path fill="#FFFFFF" d="M14.189-0.933c1.087,8.946,2.738,18.155,6.585,27.527c-5.508,2.775-11.403,4.301-17.626,7.778
			C0.359,22.246,1.158,10.67,0.443-0.052C2.79-1.81,9.397-2.578,14.189-0.933"/>
	</g>
</g>
</svg>
