<?xml version="1.0" encoding="utf-8"?>
<!-- Generator: Adobe Illustrator 15.0.0, SVG Export Plug-In . SVG Version: 6.00 Build 0)  -->
<!DOCTYPE svg PUBLIC "-//W3C//DTD SVG 1.1//EN" "http://www.w3.org/Graphics/SVG/1.1/DTD/svg11.dtd">
<svg version="1.1" id="Layer_1" xmlns="http://www.w3.org/2000/svg" xmlns:xlink="http://www.w3.org/1999/xlink" x="0px" y="0px"
	 width="416.938px" height="56.634px" viewBox="54.288 21.682 416.938 56.634"
	 enable-background="new 54.288 21.682 416.938 56.634" xml:space="preserve">
<rect x="333.83" y="27.083" fill="#FFFFFF" width="37.152" height="45.543"/>
<g>
	<path d="M310.527,59.447c0,1.842-0.076,3.007-0.23,3.494c-0.154,0.49-0.508,0.735-1.061,0.735c-0.539,0-0.885-0.214-1.033-0.639
		c-0.148-0.427-0.225-1.544-0.225-3.36V45.08c0-1.609,0.112-2.577,0.338-2.907c0.227-0.327,0.551-0.49,0.977-0.49
		c0.502,0,0.832,0.202,0.994,0.607c0.16,0.405,0.24,1.336,0.24,2.79V59.447L310.527,59.447z M318.658,50.003
		c0-3.218-0.076-5.47-0.23-6.758c-0.156-1.287-0.639-2.479-1.449-3.573c-0.812-1.094-1.885-1.915-3.217-2.462
		s-2.834-0.823-4.508-0.823c-1.766,0-3.309,0.29-4.635,0.872c-1.328,0.578-2.377,1.41-3.158,2.49
		c-0.779,1.081-1.242,2.275-1.391,3.581c-0.15,1.308-0.223,3.53-0.223,6.672v5.35c0,3.219,0.075,5.471,0.229,6.758
		c0.153,1.289,0.637,2.479,1.448,3.574c0.812,1.094,1.884,1.916,3.216,2.463c1.329,0.545,2.834,0.821,4.51,0.821
		c1.767,0,3.31-0.29,4.635-0.87c1.326-0.578,2.38-1.41,3.158-2.49c0.779-1.08,1.242-2.275,1.392-3.582
		c0.147-1.309,0.223-3.529,0.223-6.672V50.003L318.658,50.003z M297.164,47.69c0-2.92-0.244-5.068-0.732-6.451
		c-0.49-1.381-1.514-2.535-3.07-3.462c-1.557-0.924-3.534-1.388-5.93-1.388c-1.764,0-3.322,0.3-4.684,0.898
		c-1.359,0.599-2.42,1.421-3.186,2.463c-0.767,1.042-1.226,2.126-1.377,3.254c-0.158,1.125-0.234,2.816-0.234,5.068v9.135
		c0,3.064,0.252,5.359,0.754,6.884c0.502,1.526,1.525,2.72,3.07,3.582s3.51,1.295,5.889,1.295c2.291,0,4.223-0.511,5.783-1.528
		c1.563-1.018,2.576-2.205,3.033-3.56s0.686-3.647,0.686-6.884v-1.221h-8.131v3.931c0,1.719-0.092,2.808-0.277,3.271
		c-0.188,0.465-0.582,0.697-1.189,0.697c-0.631,0-1.034-0.232-1.215-0.695c-0.184-0.465-0.272-1.453-0.272-2.974V45.484
		c0-1.582,0.09-2.613,0.272-3.088c0.179-0.477,0.604-0.715,1.273-0.715c0.592,0,0.973,0.195,1.148,0.586
		c0.174,0.393,0.26,1.378,0.26,2.958v5.433h8.129V47.69L297.164,47.69L297.164,47.69z M265.044,57.148
		c0.213-2.769,0.731-7.145,1.561-13.131c0.415,5.213,0.827,9.59,1.239,13.131H265.044z M260.4,37.044l-4.147,31.267h8.406
		l0.488-5.619h2.91l0.437,5.619h8.312l-4.65-31.267H260.4z M240.061,37.044v6.259h4.809v25.008H253V43.303h4.828v-6.259H240.061z
		 M221.343,57.148c0.211-2.769,0.731-7.145,1.56-13.131c0.415,5.213,0.827,9.59,1.24,13.131H221.343z M216.7,37.044l-4.147,31.267
		h8.404l0.49-5.619h2.907l0.437,5.619h8.309l-4.65-31.267H216.7z M203.004,68.311h8.13V37.046h-8.13V68.311z M192.942,37.044v14.081
		l-4.558-14.079h-6.797v31.267h6.797V54.1l4.229,14.213h7.127V37.044H192.942z M170.357,42.858c0.354,0.31,0.531,0.96,0.531,1.952
		v1.718c0,1.378-0.184,2.192-0.55,2.442c-0.367,0.252-1.007,0.377-1.921,0.377v-6.952C169.357,42.396,170.004,42.551,170.357,42.858
		 M160.287,68.311h8.13V54.215c1.12,0,1.812,0.199,2.075,0.6c0.264,0.397,0.396,1.434,0.396,3.107v10.391h7.552v-8.248
		c0-2.521-0.068-4.062-0.205-4.623c-0.134-0.56-0.479-1.174-1.033-1.844c-0.553-0.671-1.634-1.203-3.244-1.604
		c1.777-0.167,2.968-0.67,3.572-1.506c0.605-0.836,0.909-2.472,0.909-4.907c0-2.665-0.429-4.606-1.285-5.82
		c-0.855-1.218-1.963-1.973-3.32-2.271c-1.359-0.296-3.956-0.445-7.792-0.445h-5.755V68.311L160.287,68.311z M149.125,59.447
		c0,1.842-0.079,3.007-0.232,3.494c-0.154,0.49-0.508,0.735-1.062,0.735c-0.541,0-0.886-0.214-1.034-0.639
		c-0.148-0.427-0.221-1.544-0.221-3.36V45.08c0-1.609,0.112-2.577,0.337-2.907c0.225-0.327,0.55-0.49,0.974-0.49
		c0.502,0,0.834,0.202,0.995,0.607c0.16,0.405,0.242,1.336,0.242,2.79L149.125,59.447L149.125,59.447z M157.255,50.003
		c0-3.218-0.077-5.47-0.231-6.758c-0.154-1.287-0.638-2.479-1.449-3.573c-0.811-1.094-1.883-1.915-3.214-2.462
		c-1.333-0.547-2.837-0.823-4.51-0.823c-1.764,0-3.309,0.29-4.634,0.872c-1.327,0.578-2.38,1.41-3.158,2.49
		c-0.779,1.081-1.242,2.275-1.39,3.581c-0.148,1.308-0.222,3.53-0.222,6.672v5.35c0,3.219,0.077,5.471,0.231,6.758
		c0.155,1.289,0.637,2.479,1.449,3.574c0.811,1.094,1.883,1.916,3.215,2.463c1.331,0.545,2.835,0.821,4.508,0.821
		c1.764,0,3.309-0.29,4.634-0.87c1.327-0.578,2.379-1.41,3.158-2.49c0.779-1.08,1.242-2.275,1.391-3.582
		c0.147-1.309,0.222-3.529,0.222-6.672V50.003z M122.939,68.311h8.129V55.18h5.021v-5.95h-5.021v-5.928h5.64v-6.259h-13.769V68.311
		L122.939,68.311z M111.545,68.311h8.13V37.046h-8.13V68.311z M96.502,37.044v31.267h13.074v-6.256h-4.944V37.044H96.502z
		 M83.365,57.148c0.211-2.769,0.732-7.145,1.56-13.131c0.414,5.213,0.827,9.59,1.238,13.131H83.365z M78.721,37.044l-4.148,31.267
		h8.406l0.488-5.619h2.908l0.437,5.619h8.309l-4.649-31.267H78.721z M73.502,47.69c0-2.92-0.245-5.068-0.733-6.451
		c-0.49-1.381-1.514-2.535-3.071-3.462c-1.557-0.924-3.534-1.388-5.928-1.388c-1.764,0-3.325,0.3-4.684,0.898
		c-1.357,0.599-2.419,1.421-3.186,2.463c-0.766,1.042-1.226,2.126-1.38,3.254c-0.155,1.126-0.232,2.816-0.232,5.069v9.135
		c0,3.063,0.251,5.358,0.754,6.884c0.502,1.524,1.525,2.719,3.07,3.581c1.545,0.862,3.508,1.295,5.89,1.295
		c2.292,0,4.219-0.51,5.784-1.528c1.563-1.018,2.575-2.205,3.032-3.559s0.686-3.648,0.686-6.884v-1.22h-8.13v3.928
		c0,1.719-0.094,2.807-0.279,3.271c-0.188,0.465-0.583,0.697-1.188,0.697c-0.631,0-1.036-0.232-1.216-0.695
		c-0.181-0.463-0.271-1.455-0.271-2.975v-14.52c0-1.582,0.09-2.613,0.271-3.088c0.18-0.477,0.605-0.715,1.274-0.715
		c0.592,0,0.975,0.195,1.149,0.586c0.173,0.393,0.26,1.378,0.26,2.958v5.433h8.13L73.502,47.69L73.502,47.69z"/>
	<path d="M457.131,68.311h14.096v-6.256h-5.967v-6.877h5.078V49.23h-5.078v-5.928h5.428v-6.256h-13.557V68.311z M445.9,42.858
		c0.354,0.31,0.53,0.958,0.53,1.952v1.72c0,1.376-0.184,2.189-0.551,2.443c-0.365,0.25-1.008,0.375-1.92,0.375v-6.952
		C444.9,42.395,445.547,42.55,445.9,42.858 M435.828,68.311h8.133V54.215c1.119,0,1.811,0.199,2.072,0.598
		c0.266,0.397,0.396,1.436,0.396,3.109v10.389h7.552v-8.244c0-2.523-0.066-4.065-0.203-4.625c-0.134-0.561-0.478-1.172-1.031-1.846
		c-0.555-0.669-1.635-1.203-3.244-1.602c1.777-0.168,2.967-0.671,3.572-1.506c0.604-0.836,0.906-2.473,0.906-4.906
		c0-2.667-0.429-4.607-1.281-5.822c-0.857-1.217-1.965-1.973-3.322-2.269c-1.359-0.296-3.955-0.445-7.791-0.445h-5.758V68.311
		L435.828,68.311z M424.666,59.445c0,1.844-0.076,3.009-0.23,3.496c-0.153,0.49-0.506,0.733-1.061,0.733
		c-0.539,0-0.887-0.212-1.035-0.638c-0.146-0.426-0.221-1.545-0.221-3.359V45.08c0-1.611,0.111-2.578,0.338-2.908
		c0.225-0.327,0.549-0.49,0.975-0.49c0.5,0,0.832,0.202,0.994,0.608c0.16,0.405,0.24,1.333,0.24,2.79V59.445L424.666,59.445z
		 M432.797,50.003c0-3.217-0.074-5.469-0.229-6.759c-0.156-1.287-0.642-2.477-1.451-3.573c-0.812-1.094-1.883-1.913-3.217-2.461
		c-1.33-0.547-2.834-0.821-4.511-0.821c-1.764,0-3.307,0.289-4.633,0.869s-2.379,1.411-3.158,2.491
		c-0.778,1.081-1.243,2.275-1.391,3.583c-0.148,1.306-0.223,3.529-0.223,6.67v5.35c0,3.219,0.075,5.471,0.229,6.76
		c0.156,1.285,0.637,2.477,1.451,3.57c0.809,1.094,1.881,1.916,3.213,2.465c1.332,0.545,2.834,0.82,4.51,0.82
		c1.767,0,3.31-0.29,4.636-0.871c1.325-0.578,2.379-1.408,3.157-2.49c0.779-1.082,1.244-2.274,1.392-3.58
		c0.147-1.31,0.223-3.53,0.223-6.674L432.797,50.003L432.797,50.003z M400.379,37.046l-1.871,14.601l-1.154-7.954
		c-0.329-2.551-0.651-4.768-0.963-6.647h-10.52v31.265h7.107l0.008-20.625l2.981,20.625h5.043l2.826-21.106l0.01,21.106h7.107
		V37.046H400.379z"/>
	<path d="M369.908,63.889l-5.666,5.662l-4.922-4.988c-1.258,1.439-2.764,2.588-4.516,3.439c-1.755,0.854-3.664,1.28-5.73,1.28
		c-1.844,0-3.586-0.349-5.227-1.046c-1.64-0.696-3.066-1.651-4.279-2.863c-1.217-1.216-2.183-2.641-2.898-4.283
		c-0.721-1.639-1.08-3.404-1.08-5.291c0-2.338,0.551-4.484,1.652-6.44c1.104-1.954,2.553-3.539,4.35-4.752
		c-0.629-0.764-1.113-1.642-1.449-2.629c-0.338-0.987-0.508-2.023-0.508-3.102c0-1.303,0.246-2.526,0.742-3.673
		c0.494-1.146,1.172-2.146,2.023-3.001c0.852-0.853,1.854-1.527,2.998-2.023c1.146-0.495,2.373-0.743,3.676-0.743
		s2.529,0.248,3.674,0.743c1.148,0.496,2.146,1.17,3.002,2.023c0.854,0.855,1.525,1.854,2.023,3.001
		c0.494,1.146,0.742,2.371,0.742,3.673c0,1.888-0.474,3.574-1.416,5.058c-0.945,1.484-2.203,2.608-3.777,3.371l6.137,6.204
		l5.26-5.326l5.463,5.461l-5.328,5.26L369.908,63.889z M332.15,78.316h40.387V21.682H332.15V78.316z"/>
</g>
</svg>
