<?xml version="1.0" encoding="utf-8"?>
<!-- Generator: Adobe Illustrator 15.0.0, SVG Export Plug-In . SVG Version: 6.00 Build 0)  -->
<!DOCTYPE svg PUBLIC "-//W3C//DTD SVG 1.1//EN" "http://www.w3.org/Graphics/SVG/1.1/DTD/svg11.dtd">
<svg version="1.1" id="Layer_1" xmlns="http://www.w3.org/2000/svg" xmlns:xlink="http://www.w3.org/1999/xlink" x="0px" y="0px"
	 width="140px" height="139px" viewBox="0 0 140 139" enable-background="new 0 0 140 139" xml:space="preserve">
<path d="M108,0C90.327,0,76,14.327,76,32s14.327,32,32,32s32-14.327,32-32S125.673,0,108,0z M126.391,22.568
	c0.019,0.407,0.027,0.816,0.027,1.227c0,12.539-9.544,26.998-26.997,26.998c-5.358,0-10.346-1.57-14.545-4.263
	c0.742,0.088,1.498,0.133,2.265,0.133c4.445,0,8.536-1.517,11.783-4.062c-4.152-0.076-7.656-2.82-8.863-6.591
	c0.58,0.111,1.174,0.171,1.785,0.171c0.864,0,1.703-0.117,2.5-0.334c-4.342-0.871-7.613-4.707-7.613-9.304
	c0-0.04,0-0.08,0.002-0.119c1.279,0.711,2.742,1.137,4.298,1.187c-2.546-1.701-4.222-4.606-4.222-7.898
	c0-1.739,0.469-3.369,1.285-4.77c4.68,5.741,11.672,9.518,19.559,9.914c-0.162-0.695-0.246-1.419-0.246-2.163
	c0-5.24,4.249-9.488,9.488-9.488c2.729,0,5.194,1.152,6.927,2.996c2.161-0.425,4.192-1.215,6.026-2.303
	c-0.709,2.216-2.213,4.075-4.174,5.25c1.92-0.229,3.748-0.739,5.45-1.494c-1.271,1.903-2.881,3.574-4.733,4.912L126.391,22.568
	L126.391,22.568z"/>
<path d="M32,0c17.673,0,32,14.327,32,32c0,16.318-12.215,29.783-28,31.752V40h11l1-8H36v-4c0-2.209,1.791-4,4-4h8v-8h-8
	c-6.627,0-12,5.372-12,12v4h-6v8h6v23.752C12.215,61.784,0,48.318,0,32C0,14.327,14.327,0,32,0z"/>
<path fill="#676680" d="M108,75c-17.673,0-32,14.327-32,32s14.327,32,32,32s32-14.327,32-32S125.673,75,108,75z M126.391,97.568
	c0.019,0.406,0.027,0.814,0.027,1.227c0,12.539-9.544,26.998-26.997,26.998c-5.358,0-10.346-1.57-14.545-4.264
	c0.742,0.089,1.498,0.134,2.265,0.134c4.445,0,8.536-1.517,11.783-4.062c-4.152-0.076-7.656-2.82-8.863-6.592
	c0.58,0.111,1.174,0.172,1.785,0.172c0.864,0,1.703-0.117,2.5-0.334c-4.342-0.871-7.613-4.707-7.613-9.305
	c0-0.04,0-0.08,0.002-0.119c1.279,0.711,2.742,1.139,4.298,1.188c-2.546-1.7-4.222-4.605-4.222-7.897
	c0-1.739,0.469-3.369,1.285-4.771c4.68,5.742,11.672,9.519,19.559,9.914c-0.162-0.694-0.246-1.418-0.246-2.162
	c0-5.24,4.249-9.488,9.488-9.488c2.729,0,5.194,1.152,6.927,2.996c2.161-0.426,4.192-1.215,6.026-2.303
	c-0.709,2.216-2.213,4.074-4.174,5.25c1.92-0.229,3.748-0.739,5.45-1.494c-1.271,1.902-2.881,3.574-4.733,4.912H126.391z"/>
<path fill="#676680" d="M32,75c17.673,0,32,14.327,32,32c0,16.318-12.215,29.783-28,31.752V115h11l1-8H36v-4c0-2.209,1.791-4,4-4h8
	v-8h-8c-6.627,0-12,5.372-12,12v4h-6v8h6v23.752C12.215,136.784,0,123.318,0,107C0,89.327,14.327,75,32,75z"/>
</svg>
