<?xml version="1.0" encoding="utf-8"?>
<!-- Generated by IcoMoon.io -->
<!DOCTYPE svg PUBLIC "-//W3C//DTD SVG 1.1//EN" "http://www.w3.org/Graphics/SVG/1.1/DTD/svg11.dtd">

<svg version="1.1" xmlns="http://www.w3.org/2000/svg" xmlns:xlink="http://www.w3.org/1999/xlink" width="176" height="32" viewBox="0 0 176 32">
<defs>
<g id="icon-heart">
	<path class="path1" d="M32 11.192c0-5.077-4.116-9.192-9.192-9.192-2.699 0-5.126 1.163-6.808 3.015-1.682-1.852-4.109-3.015-6.808-3.015-5.077 0-9.192 4.116-9.192 9.192 0 2.699 1.163 5.126 3.015 6.808h-0.015l10 10c1 1 2 2 3 2s2-1 3-2l9.985-10c1.852-1.682 3.015-4.109 3.015-6.808zM26.296 15.039l-10.124 10.133c-0.052 0.052-0.11 0.11-0.172 0.171-0.061-0.061-0.119-0.119-0.172-0.171l-10.124-10.133c-1.099-0.998-1.704-2.364-1.704-3.846 0-2.863 2.329-5.192 5.192-5.192 1.482 0 2.848 0.605 3.846 1.704l2.962 3.262 2.962-3.262c0.998-1.099 2.364-1.704 3.846-1.704 2.863 0 5.192 2.329 5.192 5.192 0 1.482-0.605 2.848-1.704 3.846z" />
</g>
<g id="icon-wink">
	<path class="path1" d="M16 32c8.837 0 16-7.163 16-16s-7.163-16-16-16-16 7.163-16 16 7.163 16 16 16zM16 3c7.18 0 13 5.82 13 13s-5.82 13-13 13-13-5.82-13-13 5.82-13 13-13zM16.961 22.22c4.383-0.866 7.785-2.861 9.014-5.519-0.677 5.249-5.047 9.299-10.339 9.299-3.726 0-6.996-2.009-8.84-5.030 2.2 1.721 6.079 2.056 10.165 1.249zM20 11c0-1.657 0.895-3 2-3s2 1.343 2 3c0 1.657-0.895 3-2 3-1.105 0-2-1.343-2-3zM11 11.609c-1.306 0-2.417 0.489-2.829 1.172-0.111-0.183-0.171-1.005-0.171-1.211 0-0.971 1.343-1.758 3-1.758 1.657 0 3 0.787 3 1.758 0 0.206-0.061 1.028-0.171 1.211-0.412-0.683-1.522-1.172-2.829-1.172z" />
</g>
<g id="icon-facebook">
	<path class="path1" d="M16 0c8.837 0 16 7.163 16 16 0 8.159-6.107 14.892-14 15.876v-11.876h5.5l0.5-4h-6v-2c0-1.105 0.895-2 2-2h4v-4h-4c-3.314 0-6 2.686-6 6v2h-3v4h3v11.876c-7.893-0.984-14-7.717-14-15.876 0-8.837 7.163-16 16-16z" />
</g>
<g id="icon-twitter">
	<path class="path1" d="M16 0c-8.837 0-16 7.163-16 16s7.163 16 16 16 16-7.163 16-16-7.163-16-16-16zM25.195 11.284c0.009 0.203 0.014 0.408 0.014 0.614 0 6.269-4.772 13.499-13.499 13.499-2.679 0-5.173-0.785-7.273-2.132 0.371 0.044 0.749 0.066 1.132 0.066 2.223 0 4.268-0.759 5.892-2.031-2.076-0.038-3.828-1.41-4.432-3.295 0.29 0.055 0.587 0.085 0.893 0.085 0.433 0 0.852-0.058 1.25-0.166-2.17-0.436-3.806-2.354-3.806-4.652 0-0.020 0-0.040 0-0.060 0.64 0.355 1.371 0.569 2.149 0.593-1.273-0.851-2.111-2.303-2.111-3.949 0-0.869 0.234-1.684 0.642-2.385 2.34 2.87 5.836 4.759 9.779 4.957-0.081-0.347-0.123-0.709-0.123-1.081 0-2.62 2.124-4.744 4.744-4.744 1.365 0 2.598 0.576 3.463 1.498 1.081-0.213 2.096-0.608 3.013-1.151-0.354 1.108-1.107 2.038-2.086 2.625 0.96-0.115 1.874-0.37 2.725-0.747-0.636 0.951-1.44 1.787-2.367 2.456z" />
</g>
</defs>

<g fill="#000000">
	<use xlink:href="#icon-heart" transform="translate(0 0)"></use>
	<use xlink:href="#icon-wink" transform="translate(48 0)"></use>
	<use xlink:href="#icon-facebook" transform="translate(96 0)"></use>
	<use xlink:href="#icon-twitter" transform="translate(144 0)"></use>
</g>

</svg>
